<?xml version="1.0" encoding="utf-8"?>
<!-- Generator: Adobe Illustrator 13.0.0, SVG Export Plug-In . SVG Version: 6.00 Build 14948)  -->
<!DOCTYPE svg PUBLIC "-//W3C//DTD SVG 1.1//EN" "http://www.w3.org/Graphics/SVG/1.1/DTD/svg11.dtd">
<svg version="1.1" id="Layer_1" xmlns="http://www.w3.org/2000/svg" xmlns:xlink="http://www.w3.org/1999/xlink" x="0px" y="0px"
	 width="193px" height="138px" viewBox="0 0 193 138" enable-background="new 0 0 193 138" xml:space="preserve">
<g>
	<polygon fill-rule="evenodd" clip-rule="evenodd" fill="#FFFFFF" points="-2,-23 190.756,-23 190.756,169.756 -2,169.756 -2,-23 	
		"/>
	<rect x="186.149" y="62.16" fill-rule="evenodd" clip-rule="evenodd" fill="#FFFFFF" width="0.003" height="0.002"/>
	<path fill-rule="evenodd" clip-rule="evenodd" fill="#FFFFFF" d="M186.15,62.162c-0.976-0.683-2.396-0.567-4.224,0.346
		c0,0-0.787,0.331-1.574,0.661c-0.141-0.234-0.242-0.463-0.479-0.708c-1.406-1.445-4.822-3.385-6.824-4.09
		c-1.592-0.562-3.55-0.241-4.852,0.247l-10.293,4.58c-0.229,0.069-0.338,0.105-0.845-0.478c0,0-3.564-3.726-4.43-4.631
		c2.49-1.125,10.005-4.519,10.005-4.519c0.73-0.336,1.147-1.006,1.147-1.726c0-0.266-0.057-0.538-0.175-0.802
		c-0.485-1.074-2.037-1.938-3.239-1.408c-0.002,0.001-8.453,3.76-11.736,5.22c-0.105-0.139-0.138-0.266-0.28-0.406
		c0.006,0.004-0.258-0.259-0.541-0.544c0.05-0.18,0.145-0.351,0.145-0.538l-0.227-0.983c-0.547-1.112-2.08-1.861-3.847-1.058
		c0.05-0.021-0.723,0.283-1.494,0.584c-0.117-0.391-0.133-0.438-0.244-0.802c13.611-5.782,13.844-5.943,14.013-6.07
		c0.681-0.51,1.039-1.207,1.039-1.916c0-0.447-0.143-0.9-0.435-1.314c-0.726-1.026-2.118-1.437-2.744-1.578
		c-1.251-0.661-3.138-0.999-4.481-0.377c0,0-8.24,3.531-10.186,4.363c-0.591-1.259-1.228-2.493-1.903-3.707
		c0.989-0.561,1.308-1.026,1.46-1.446c0.064-0.176,0.105-0.4,0.105-0.609c0-0.094-0.009-0.185-0.027-0.268l-0.047-0.209
		c-0.031-0.135-0.08-0.263-0.146-0.383c-0.656-1.171-1.504-1.894-2.521-2.149c-0.774-0.192-1.43-0.058-1.865,0.104
		c-0.473-0.653-0.729-1.009-1.272-1.76c0.457-0.407,0.766-0.825,0.853-1.299c0.021-0.112,0.03-0.224,0.03-0.336
		c0-0.526-0.228-1.035-0.643-1.404c-1.554-1.377-2.928-1.507-3.861-1.389c-0.491-0.511-1.014-1.057-1.858-1.936
		c0.456-0.357,0.833-0.776,0.947-1.372c0.022-0.113,0.038-0.239,0.038-0.378c0-0.425-0.138-0.958-0.626-1.505
		c-0.874-0.978-2.58-1.089-3.858-1.011c-0.16,0.01-0.317,0.046-0.466,0.109c0,0-0.206,0.087-0.366,0.154
		c-0.982-0.819-1.974-1.537-2.966-2.271c0.15-0.063,0.504-0.212,0.504-0.212c0.528-0.223,0.871-0.742,0.871-1.312
		c0-0.019-0.016-0.401-0.016-0.401c-0.023-0.594-0.414-1.111-0.979-1.296l-2.359-0.773c-0.325-0.106-0.677-0.092-0.992,0.04
		c0,0-1.081,0.452-1.762,0.736c-0.861-0.516-1.78-0.967-2.679-1.445c0.054-0.022,0.305-0.125,0.305-0.125
		c0.521-0.214,0.896-0.724,0.912-1.286c0,0,0.012-0.367,0.012-0.381c0-0.559-0.326-1.067-0.838-1.298l-2.121-0.96
		c-0.177-0.08-0.368-0.123-0.561-0.126c-0.332-0.005-0.455,0.038-3.595,1.355c-6.051-2.369-16.113-4.334-22.403-4.334
		c-33.344,0-60.472,27.127-60.472,60.47c0,6.755,1.157,13.37,3.352,19.71c-1.677,0.693-6.197,2.563-6.197,2.563
		c-8.257,3.393-12.2,5.02-12.683,5.289c-1.57,0.873-2.976,2.531-2.976,4.795c0,0.951,0.248,2.008,0.835,3.158
		c2.288,4.473,14.688,15.818,31.808,17.348c0.208,0.02,0.416,0.014,0.623,0.029c-0.652,0.273-2.083,0.875-2.083,0.875
		c-1.572,0.783-1.919,1.75-1.919,2.449c0,0.426,0.129,0.754,0.187,0.879c0.816,1.777,3.765,2.01,5.901,1.111
		c0.021-0.01,8.086-3.564,8.086-3.564c-0.001,0-0.001,0-0.001,0c0.007,0,3.943-1.648,5.438-2.273
		c9.148,5.277,19.526,8.105,30.102,8.105c27.587,0,51.511-18.549,58.474-45.184c25.039-10.471,38.4-16.05,39.645-16.548
		c2.382-0.952,4.104-2.663,4.291-4.259c0.008-0.055,0.017-0.24,0.017-0.295C187.08,63.24,186.741,62.575,186.15,62.162
		L186.15,62.162z"/>
	<path fill-rule="evenodd" clip-rule="evenodd" d="M84.654,10.754c-32.559,0-59.047,26.488-59.047,59.045
		c0,32.56,26.489,59.048,59.047,59.048S143.7,102.359,143.7,69.8C143.7,37.242,117.213,10.754,84.654,10.754L84.654,10.754z"/>
	<path fill-rule="evenodd" clip-rule="evenodd" fill="#EA262D" d="M25.985,69.8c0-32.349,26.318-58.667,58.669-58.667
		c32.35,0,58.667,26.318,58.667,58.667c0,32.351-26.317,58.671-58.667,58.671C52.304,128.471,25.985,102.15,25.985,69.8L25.985,69.8
		z"/>
	<path fill-rule="evenodd" clip-rule="evenodd" d="M25.615,69.8c0,32.556,26.484,59.04,59.039,59.04
		c32.554,0,59.037-26.484,59.037-59.04c0-10.964-3.049-21.682-8.818-30.993l-0.154-0.25l-2.203,0.745l0.25,0.397
		c5.668,9.029,8.664,19.436,8.664,30.094c0,31.309-25.474,56.781-56.784,56.781c-31.31,0-56.782-25.473-56.782-56.781
		c0-31.31,25.472-56.783,56.782-56.783c7.22,0,14.283,1.36,20.993,4.04l0.153,0.061l2.692-1.326l-0.742-0.316
		c-7.321-3.122-15.089-4.705-23.088-4.705C52.1,10.763,25.615,37.247,25.615,69.8L25.615,69.8z"/>
	<path fill-rule="evenodd" clip-rule="evenodd" fill="#FADC19" d="M134.559,39.001l-1.479,0.501
		c5.518,8.789,8.721,19.17,8.721,30.291c0,31.514-25.639,57.15-57.154,57.15c-31.514,0-57.152-25.637-57.152-57.15
		c0-31.515,25.638-57.153,57.152-57.153c7.463,0,14.589,1.453,21.131,4.065l1.82-0.897c-7.052-3.007-14.805-4.676-22.942-4.676
		c-32.351,0-58.669,26.318-58.669,58.667c0,32.351,26.318,58.671,58.669,58.671c32.35,0,58.667-26.32,58.667-58.671
		C143.321,58.51,140.108,47.959,134.559,39.001L134.559,39.001z"/>
	<path fill-rule="evenodd" clip-rule="evenodd" d="M84.646,120.719c28.126,0,50.929-22.801,50.929-50.926
		c0-28.127-22.803-50.928-50.929-50.928c-28.125,0-50.926,22.8-50.926,50.928C33.719,97.918,56.521,120.719,84.646,120.719
		L84.646,120.719z"/>
	<polygon fill-rule="evenodd" clip-rule="evenodd" fill="#FFFFFF" points="10.735,104.301 140.689,49.954 141.98,54.004 
		153.168,69.167 38.747,118.07 10.735,104.301 	"/>
	<path fill-rule="evenodd" clip-rule="evenodd" d="M185.334,63.328c-0.5-0.35-1.483-0.189-2.77,0.455L37.413,124.881
		c-1.165,0.58-1.12,1.141-0.99,1.422c0.364,0.791,2.305,1.127,4.053,0.391c0,0,7.997-3.523,8.003-3.525
		c1.306-0.547,129.743-54.34,133.765-55.948c2.096-0.838,3.3-2.195,3.405-3.102c0.006-0.044,0.007-0.087,0.007-0.13
		C185.656,63.707,185.545,63.476,185.334,63.328L185.334,63.328z"/>
	<path fill-rule="evenodd" clip-rule="evenodd" d="M155.596,42.626c-0.624-0.882-2.979-1.516-3.963-0.86
		c-1.192,0.794-12.67,5.43-12.786,5.477l-6.312,2.646c-0.199,0.088-19.994,8.771-25.219,10.779l-11.192,4.478L68.248,76.744
		l-5.284,2.031L44.44,87.123c-1.07,0.639-1.537,1.195-1.407,1.664c0.132,0.477,0.836,0.719,2.092,0.719
		c2.857,0,109.569-45.153,110.176-45.61C155.797,43.526,155.904,43.063,155.596,42.626L155.596,42.626z"/>
	<path fill-rule="evenodd" clip-rule="evenodd" fill="#FADC19" d="M36.756,126.15c-0.127-0.275,0.169-0.617,0.811-0.938
		l145.15-61.098c1.681-0.84,2.267-0.585,2.406-0.487c0.132,0.092,0.186,0.243,0.162,0.448c-0.091,0.78-1.234,2.028-3.177,2.805
		c-4.024,1.609-132.475,55.407-133.772,55.95l-8.005,3.527C38.724,127.035,37.017,126.717,36.756,126.15L36.756,126.15z"/>
	<path fill-rule="evenodd" clip-rule="evenodd" fill="#EA262D" d="M138.986,47.582c0.471-0.19,11.627-4.695,12.85-5.511
		c0.817-0.544,2.941,0.029,3.462,0.767c0.119,0.169,0.228,0.434-0.216,0.766c-0.661,0.45-107.433,45.506-109.956,45.535
		c-1.19,0-1.68-0.232-1.74-0.451c-0.004-0.018-0.006-0.035-0.006-0.055c0-0.227,0.319-0.639,1.23-1.186l18.496-8.334l5.278-2.029
		l27.878-11.6l11.188-4.475c5.229-2.01,25.017-10.69,25.231-10.784C132.684,50.224,138.986,47.582,138.986,47.582L138.986,47.582z"
		/>
	<path fill-rule="evenodd" clip-rule="evenodd" d="M112.736,15.032l0.011-0.338l-2.121-0.96c-0.144-0.002-19.378,8.157-19.378,8.157
		c-11.114,4.728-23.709,10.086-25.271,10.711l-0.882,2.131l0.253,0.229C67.525,33.875,110.39,15.934,112.736,15.032L112.736,15.032z
		"/>
	<polygon fill-rule="evenodd" clip-rule="evenodd" points="65.611,36.439 65.507,36.483 65.373,38.744 108.165,20.727 
		108.16,20.387 105.797,19.475 65.611,36.439 	"/>
	<polygon fill-rule="evenodd" clip-rule="evenodd" points="120.306,19.625 120.292,19.282 117.933,18.508 66.176,40.154 
		66.079,40.195 65.934,41.368 64.309,42.873 64.508,43.173 120.306,19.625 	"/>
	<path fill-rule="evenodd" clip-rule="evenodd" d="M111.623,28.253l3.22-1.432c0.185-0.099,0.749-0.399,0.665-0.821
		c-0.139-0.692-2.102-0.933-2.7-0.99l-47.43,19.492l-0.095,0.039l-0.281,1.758c-0.475,0.199-2.077,1.319-2.055,2.135l0.007,0.268
		L111.623,28.253L111.623,28.253z"/>
	<path fill-rule="evenodd" clip-rule="evenodd" d="M56.488,55.923c2.787-1.163,68.26-28.493,69.473-29.1
		c0.816-0.408,1.177-0.71,1.241-1.042c0.054-0.281-0.12-0.515-0.255-0.667c-0.578-0.647-2.491-0.548-2.707-0.536l-63.81,26.894
		c-0.082,0.064-2.082,2.169-2.994,2.594c-0.716,0.334-1.196,0.581-1.325,0.964l0.184,1.034L56.488,55.923L56.488,55.923z"/>
	<path fill-rule="evenodd" clip-rule="evenodd" d="M44.27,65.37l0.214-0.088c3.024-1.255,74.078-30.73,75.288-31.337l1.181-0.457
		c0.956-0.331,1.858-0.643,1.983-1.182c0.052-0.227-0.039-0.458-0.268-0.689c-1.809-1.812-3.443-0.895-3.46-0.886
		c-0.004,0-71.528,30.208-71.528,30.208c-0.393,0.169-0.664,0.612-0.951,1.081c-0.271,0.444-0.551,0.902-0.921,1.088l-0.225,0.109
		c-0.722,0.35-1.541,0.745-1.35,1.925L44.27,65.37L44.27,65.37z"/>
	<path fill-rule="evenodd" clip-rule="evenodd" d="M132.582,32.234c0.029-0.157-0.026-0.307-0.155-0.421
		c-1.907-1.692-3.388-0.915-3.45-0.881c-0.821,0.347-83.848,35.494-86.055,36.297c-1.491,0.542-1.768,1.247-1.968,1.761
		l-0.424,0.595c-0.716,0.359-1.489,0.84-1.587,2.021l-0.025,0.3l90.61-37.754C130.009,33.969,132.443,33.002,132.582,32.234
		L132.582,32.234z"/>
	<path fill-rule="evenodd" clip-rule="evenodd" d="M127.465,39.387c0.956-0.329,1.857-0.642,1.982-1.181
		c0.051-0.227-0.038-0.459-0.268-0.688c-1.794-1.794-3.439-1.236-3.509-1.211c-0.816,0.345-80.654,34.139-82.862,34.941
		c-1.501,0.545-1.64,1.298-1.742,1.849c-0.059,0.321-0.099,0.494-0.312,0.6c-0.643,0.323-0.868,0.759-1.179,1.363l-0.406,0.742
		l0.228,0.264c3.496-1.453,85.621-35.588,86.887-36.218C126.284,39.845,127.465,39.387,127.465,39.387L127.465,39.387z"/>
	<path fill-rule="evenodd" clip-rule="evenodd" d="M154.145,42.07c-0.548-0.917-2.872-1.454-4.012-0.927l-12.814,5.491l-6.305,2.645
		c-0.202,0.089-19.998,8.771-25.223,10.779c-0.001,0-0.188,0.073-0.188,0.073c-5.051,1.943-5.464,2.102-9.005-0.257l-1.525-1.037
		c-1.905-1.312-2.516-1.658-4.008-1.505c0.412-0.294,0.861-0.614,0.861-0.614c0.751-0.537,1.387-0.531,2.122-0.524
		c0.595,0.006,1.269,0.011,2.101-0.265l31.548-13.026l7.519-2.931c0.503-0.192,2.159-0.863,2.353-1.395l0.027-0.079l-0.047-0.21
		c-0.456-0.815-1.003-1.307-1.625-1.462c-0.715-0.178-1.257,0.164-1.279,0.178c-0.864,0.36-89.101,37.509-91.309,38.314
		c-1.513,0.551-1.914,1.49-2.206,2.174c-0.159,0.373-0.284,0.666-0.53,0.83c-0.802,0.535-1.155,0.83-1.1,2.197l0.01,0.266
		c0,0,15.575-6.538,15.595-6.545c0.641-0.215,1.146-0.145,1.547,0.215c0,0,3.854,3.59,4.221,3.934
		c-0.487,0.219-17.958,8.123-17.958,8.123c-0.952,0.572-1.427,1.076-1.427,1.51c0,0.053,0.007,0.105,0.021,0.156
		c0.132,0.477,0.836,0.721,2.092,0.721c2.848,0,109.568-45.155,110.177-45.61C154.434,42.793,154.289,42.312,154.145,42.07
		L154.145,42.07z"/>
	<path fill-rule="evenodd" clip-rule="evenodd" fill="#FADC19" d="M66.217,32.837c1.461-0.521,14.06-5.88,25.175-10.61l19.227-8.156
		c0,0,1.107,0.537,1.602,0.775c-4.222,1.695-42.344,17.654-46.622,19.601C65.8,33.921,66.217,32.837,66.217,32.837L66.217,32.837z"
		/>
	<path fill-rule="evenodd" clip-rule="evenodd" fill="#EA262D" d="M105.803,19.814c0,0,1.269,0.521,1.814,0.746
		c-0.79,0.333-41.313,17.395-41.844,17.617c0.022-0.385,0.076-1.279,0.085-1.445C66.066,36.644,105.803,19.814,105.803,19.814
		L105.803,19.814z"/>
	<path fill-rule="evenodd" clip-rule="evenodd" fill="#FADC19" d="M117.946,18.852c0,0,1.205,0.42,1.779,0.621
		c-0.849,0.357-52.703,22.242-54.45,22.979c0.472-0.455,0.966-0.93,0.966-0.93s0.142-0.893,0.17-1.069
		C66.6,40.374,117.946,18.852,117.946,18.852L117.946,18.852z"/>
	<path fill-rule="evenodd" clip-rule="evenodd" fill="#EA262D" d="M112.859,25.361c1.015,0.119,2.232,0.424,2.289,0.71
		c0.002,0.004,0.002,0.008,0.002,0.012c0,0.076-0.124,0.225-0.48,0.415l-3.188,1.417c0,0-47.269,19.861-48.033,20.182
		c0.287-0.488,1.075-1.172,1.828-1.611c0,0,0.296-1.5,0.333-1.682C65.789,44.729,112.859,25.361,112.859,25.361L112.859,25.361z"/>
	<path fill-rule="evenodd" clip-rule="evenodd" fill="#FADC19" d="M56.458,55.147c0.075-0.221,0.44-0.426,1.132-0.749
		c0.976-0.455,2.959-2.543,3.043-2.632l63.689-26.836c0.479-0.02,1.961-0.009,2.352,0.428c0.142,0.16,0.171,0.255,0.171,0.316
		c0,0.014-0.001,0.026-0.004,0.037c-0.037,0.195-0.379,0.451-1.045,0.785c-1.172,0.587-65.564,27.467-69.255,29.008
		C56.505,55.35,56.458,55.147,56.458,55.147L56.458,55.147z"/>
	<path fill-rule="evenodd" clip-rule="evenodd" fill="#EA262D" d="M44.571,64.812c0-0.7,0.525-0.954,1.171-1.265l0.229-0.112
		c0.464-0.233,0.772-0.737,1.07-1.224c0.255-0.418,0.497-0.813,0.783-0.936l71.546-30.216c0.077-0.043,1.436-0.788,3.037,0.817
		c0.116,0.116,0.175,0.219,0.175,0.307c0,0.014-0.002,0.028-0.005,0.041c-0.079,0.342-1.003,0.661-1.745,0.918l-1.226,0.477
		c-1.167,0.584-70.736,29.447-75.033,31.229C44.574,64.836,44.571,64.823,44.571,64.812L44.571,64.812z"/>
	<path fill-rule="evenodd" clip-rule="evenodd" fill="#FADC19" d="M40.693,69.914l0.601-0.79c0.186-0.475,0.417-1.065,1.752-1.552
		c2.215-0.806,85.25-35.956,86.089-36.311c0.069-0.035,1.343-0.687,3.049,0.825c0.033,0.031,0.04,0.051,0.04,0.067
		c0,0.005-0.001,0.011-0.003,0.016c-0.075,0.416-1.701,1.212-2.83,1.645c0,0-89.174,37.155-89.948,37.478
		C39.619,70.664,40.008,70.256,40.693,69.914L40.693,69.914z"/>
	<path fill-rule="evenodd" clip-rule="evenodd" fill="#EA262D" d="M39.901,75.227c0.3-0.582,0.481-0.934,1.017-1.203
		c0.385-0.191,0.448-0.532,0.509-0.862c0.095-0.513,0.203-1.096,1.507-1.569c2.216-0.807,82.063-34.604,82.869-34.946
		c0.05-0.017,1.496-0.493,3.118,1.129c0.116,0.116,0.174,0.219,0.174,0.306c0,0.014-0.003,0.028-0.005,0.042
		c-0.08,0.341-1.002,0.661-1.744,0.917l-1.226,0.478c-1.206,0.601-79.712,33.234-86.382,36.007
		C39.815,75.383,39.901,75.227,39.901,75.227L39.901,75.227z"/>
	<path fill-rule="evenodd" clip-rule="evenodd" fill="#FADC19" d="M153.83,42.258c-0.422-0.704-2.504-1.264-3.548-0.78l-12.82,5.494
		l-6.304,2.644c-0.199,0.087-20.004,8.773-25.236,10.785l-0.188,0.073c-5.106,1.964-5.641,2.17-9.339-0.294l-1.529-1.04
		c-2.189-1.509-2.471-1.702-4.441-1.373l-0.136-0.33l1.424-1.017c0.849-0.606,1.573-0.599,2.339-0.592
		c0.593,0.005,1.208,0.011,1.968-0.241l31.54-13.024l7.523-2.933c1.106-0.424,2.107-0.978,2.145-1.164
		c-0.401-0.72-0.869-1.152-1.387-1.283c-0.561-0.143-0.996,0.126-1.027,0.143c-0.892,0.375-89.138,37.529-91.354,38.337
		c-1.364,0.494-1.699,1.281-1.994,1.971c-0.168,0.396-0.327,0.77-0.664,0.99c-0.641,0.43-0.932,0.635-0.938,1.613
		c0.491-0.207,15.121-6.346,15.121-6.346c0.768-0.257,1.41-0.159,1.913,0.293l4.626,4.309l-18.441,8.342
		c-0.991,0.596-1.282,1.033-1.223,1.242c0.061,0.221,0.549,0.453,1.739,0.453c2.521-0.031,109.297-45.087,109.958-45.536
		C154.049,42.625,153.885,42.348,153.83,42.258L153.83,42.258L153.83,42.258z M67.263,76.424c-1.664,0.605-3.948-2.301-4.809-3.395
		l-0.176-0.224c-0.274-0.335-1.28-0.538-1.957-0.394c-0.463,0.099-0.751-0.099-0.831-0.341c-0.081-0.244,0.046-0.497,0.31-0.616
		l4.44-1.856c4.606-1.916,11.567-4.809,13.412-5.668l3.174-1.889c3.396-2.138,5.859-3.618,6.605-3.191
		c1.246,0.713,2.204,1.79,3.049,2.74c0.687,0.771,1.335,1.5,2.044,1.944l2.199,1.203l0.011,0.342L67.263,76.424L67.263,76.424z"/>
	<path fill-rule="evenodd" clip-rule="evenodd" d="M144.472,52.621c-2.221,0.808-12.44,5.266-12.543,5.311
		c-0.554,0.277-0.885,0.649-0.964,1.081c-0.089,0.473,0.118,0.989,0.615,1.534l5.531,5.719c1.31,1.366,2.549,1.558,4.275,0.661
		c-0.004,0.001,1.21-0.5,1.21-0.5l4.817-2.007c0.354-0.157,0.833,0.129,0.994,0.47c0.035,0.074,0.052,0.144,0.052,0.208
		c0,0.152-0.098,0.278-0.291,0.376l-6.022,2.57c-0.744,0.308-1.147,0.67-1.229,1.109c-0.012,0.058-0.017,0.114-0.017,0.171
		c0,0.375,0.227,0.773,0.687,1.213c0,0,1.554,1.526,1.874,1.839c-0.272,0.117-0.701,0.3-0.701,0.3c-0.669,0.298-0.987,0.121-1.8-0.5
		l-8.191-7.181c-0.741-0.73-1.7-0.924-2.622-0.524c0,0-0.703,0.281-1.108,0.441c0.059-0.518,0.414-3.712,0.414-3.712
		c0.375-0.261,0.53-0.62,0.53-0.95c0-0.186-0.049-0.363-0.135-0.509c-0.229-0.383-0.77-0.643-1.462-0.358l-3.387,1.287
		c-1.053,0.467-1.471,1.057-1.874,2.635l-0.224,0.897c-0.394,1.594-0.802,3.243-1.34,3.393c-0.138,0.039-0.309-0.042-0.505-0.238
		c0,0-1.79-2.037-1.899-2.164c0.054-0.154,0.105-0.31,0.105-0.459c0-0.287-0.101-0.553-0.294-0.746
		c-0.328-0.327-0.843-0.374-1.374-0.126l-5.222,2.441c-0.526,0.246-0.819,0.543-0.897,0.911c-0.013,0.063-0.02,0.127-0.02,0.192
		c0,0.329,0.17,0.685,0.517,1.083c0.256,0.289,11.173,11.15,11.638,11.613c0.021,0.018,0.343,0.141,0.647,0.256
		c-0.497,0.146-1.117,0.33-1.229,0.363c-0.228-0.166-2.746-2.004-3.183-2.502c-0.525-0.604-2.246-1.109-3.147-0.584l-4.393,2.027
		c-0.509,0.254-1.163,0.363-1.489,0.037l-4.062-4.537c-0.209-0.209-0.323-0.412-0.323-0.572c0-0.014,0.001-0.027,0.003-0.041
		c0.014-0.102,0.081-0.186,0.205-0.258l4.321-1.944c0.292-0.146,0.505-0.426,0.59-0.771c0.027-0.113,0.042-0.228,0.042-0.341
		c0-0.266-0.076-0.521-0.22-0.722c0,0-0.825-1.259-0.899-1.37c0.065-0.111,0.148-0.216,0.148-0.345c0-0.219-0.072-0.442-0.145-0.589
		c-0.752-1.007-1.827-0.581-2.959-0.015l-4.511,1.947c-2.581,1.09-5.506,2.326-6.276,2.736c-0.498,0.266-0.798,0.655-0.868,1.125
		c-0.011,0.069-0.016,0.141-0.016,0.21c0,0.476,0.233,0.968,0.671,1.405c0,0,10.358,10.299,11.77,11.701
		c-0.874,0.574-1.806,0.914-3.248-0.305c-0.422-0.357-10.459-9.723-11.244-10.453c0.25-0.217,0.511-0.545,0.511-1.002
		c0-0.219-0.059-0.457-0.206-0.711c-0.169-0.289-0.712-0.882-2.114-0.129l-5.306,2.334c-0.759,0.291-1.235,0.75-1.335,1.285
		c-0.012,0.061-0.019,0.131-0.019,0.203c0,0.297,0.119,0.684,0.565,1.09c0,0,7.831,7.354,8.165,7.666
		c-0.738,0.518-2.334,1.439-3.009,0.861c0,0-7.848-7.313-8.015-7.469c0.174-0.275,0.307-0.547,0.307-0.771
		c0-0.252-0.086-0.463-0.21-0.617c-0.309-0.383-0.998-0.584-1.837-0.176l-5.305,2.443c-0.063,0.039-0.92,0.631-0.982,1.459
		c-0.002,0.031-0.003,0.063-0.003,0.096c0,0.396,0.189,0.773,0.563,1.121c0,0,12.054,11.184,12.449,11.551
		c-0.134,0.059-0.271,0.119-0.271,0.119c-1.159,0.535-1.997,0.924-5.216-1.947c0,0-9.251-8.291-9.499-8.516
		c0.301-0.311,0.46-0.654,0.46-0.971c0-0.23-0.064-0.443-0.17-0.613c-0.268-0.428-0.875-0.701-1.632-0.354l-5.037,2.039
		c-0.653,0.301-1.034,0.691-1.14,1.162c-0.021,0.09-0.029,0.182-0.029,0.27c0,0.518,0.313,0.98,0.522,1.229
		c0.312,0.375,1.009,0.969,1.545,1.408c-1.028-0.271-3.074-0.811-3.348-0.883c0.109-0.164,0.254-0.32,0.254-0.508
		c0-0.238-0.078-0.479-0.199-0.674c-0.258-0.418-0.774-0.748-1.297-0.486c-1.237,0.412-6.481,2.656-6.909,2.848
		c-0.501,0.223-1.122,0.627-1.235,1.295c-0.012,0.068-0.018,0.139-0.018,0.209c0,0.535,0.334,1.123,0.997,1.746
		c0,0,10.541,9.492,11.978,10.785c-0.326,0.266-1.563,1.135-3.054-0.025c-1.796-1.398-10.402-8.949-11.18-9.729
		c-0.139-0.137-0.101-0.248,0.109-0.582c0.238-0.379,0.598-0.949-0.23-1.57c-0.882-0.662-2.39-0.037-3.448,0.49
		c-0.999,0.502-11.174,4.635-11.277,4.676c-0.708,0.389-2.031,1.119-2.183,2.355c-0.009,0.078-0.014,0.154-0.014,0.23
		c0,0.768,0.461,1.586,1.375,2.436c0,0,8.65,8.445,9.38,9.158c-0.444,0.367-2.489,1.604-9.519,1.078
		c-5.713-0.428-14.06-3.844-17.863-7.311c-0.492-0.451-0.718-0.832-0.668-1.133c0.048-0.295,0.37-0.576,0.959-0.838
		c0.824-0.367,23.283-10.029,24.275-10.441c0.388-0.162,0.531-0.426,0.583-0.619c0.101-0.373-0.035-0.842-0.373-1.289
		c-0.206-0.273-0.712-0.342-1.297-0.42l-1.345-0.311l-4.061-2.168c-1.836-0.734-4.333,0.447-6.158,1.309l-0.856,0.398l-8.828,3.65
		c-6.04,2.482-12.284,5.047-12.753,5.307c-0.851,0.475-3.48,2.311-1.564,6.061c2.182,4.268,14.104,15.098,30.666,16.578
		c4.799,0.428,9.697-0.449,14.973-2.678L178.195,66.05c0.744-0.396,1.144-0.821,1.217-1.297c0.064-0.414-0.124-0.851-0.561-1.299
		c-1.22-1.254-4.472-3.104-6.275-3.741c-1.232-0.435-2.86-0.145-3.878,0.237l-10.216,4.548c-1.136,0.378-1.798-0.042-2.496-0.843
		l-4.933-5.153c-0.768-0.808-1.645-1.008-2.605-0.594l-1.601,0.748c-1.692,0.795-4.526,2.126-4.813,2.224
		c-0.432,0.147-0.778-0.035-0.887-0.28c-0.022-0.052-0.033-0.104-0.033-0.156c0-0.158,0.106-0.306,0.306-0.415l6.052-2.716
		c0.045-0.027,0.386-0.27,0.423-0.714c0.003-0.027,0.005-0.054,0.005-0.081c0-0.343-0.184-0.698-0.547-1.056
		c0,0-1.096-1.102-1.321-1.328c0.33-0.241,0.499-0.515,0.499-0.769c0-0.13-0.03-0.251-0.082-0.356
		C146.198,52.499,145.42,52.189,144.472,52.621L144.472,52.621z"/>
	<path fill-rule="evenodd" clip-rule="evenodd" fill="#EA262D" d="M137.376,66.011l-5.528-5.714
		c-0.413-0.452-0.59-0.863-0.524-1.217c0.075-0.397,0.455-0.664,0.761-0.816c0.095-0.041,10.302-4.495,12.527-5.304
		c0.797-0.362,1.358-0.092,1.509,0.212c0.134,0.275-0.034,0.578-0.44,0.792l-0.221,0.115l1.637,1.644
		c0.309,0.306,0.454,0.588,0.435,0.842c-0.021,0.272-0.23,0.427-0.239,0.434c-0.964,0.426-5.93,2.645-6.048,2.711
		c-0.528,0.288-0.562,0.74-0.431,1.039c0.174,0.395,0.701,0.697,1.338,0.479c0.283-0.096,2.458-1.114,4.853-2.238l1.591-0.744
		c0.815-0.352,1.535-0.186,2.195,0.51l4.927,5.147c0.664,0.765,1.479,1.412,2.9,0.938l10.221-4.549
		c1.026-0.384,2.551-0.607,3.616-0.231c1.732,0.61,4.969,2.451,6.137,3.651c0.311,0.319,0.468,0.617,0.468,0.885
		c0,0.035-0.001,0.068-0.007,0.102c-0.055,0.349-0.401,0.694-1.025,1.028c-0.023,0.01-124.747,52.505-124.747,52.505
		c-5.22,2.205-10.061,3.072-14.799,2.648c-16.417-1.467-28.217-12.166-30.372-16.381c-1.719-3.363,0.42-5.018,1.416-5.572
		c0.45-0.248,6.965-2.924,12.714-5.287l8.838-3.656l0.865-0.4c1.764-0.834,4.178-1.975,5.845-1.311
		c0.001,0.002,4.055,2.166,4.055,2.166c0.001,0,1.46,0.346,1.46,0.346c0.439,0.059,0.938,0.125,1.053,0.277
		c0.214,0.283,0.332,0.576,0.332,0.814c0,0.057-0.007,0.109-0.021,0.16c-0.046,0.166-0.167,0.289-0.371,0.373
		c-0.992,0.414-23.459,10.08-24.283,10.447c-0.719,0.318-1.103,0.684-1.172,1.113c-0.008,0.047-0.012,0.096-0.012,0.143
		c0,0.398,0.262,0.832,0.796,1.318c3.853,3.512,12.303,6.973,18.082,7.404c8.445,0.633,9.903-1.25,9.962-1.33l0.092-0.127
		l-9.639-9.41c-0.915-0.854-1.334-1.645-1.246-2.354c0.129-1.051,1.341-1.721,1.923-2.043c0.454-0.189,10.325-4.197,11.337-4.705
		c0.56-0.279,2.261-1.129,3.064-0.527c0.558,0.42,0.383,0.699,0.14,1.084c-0.178,0.283-0.422,0.672-0.058,1.037
		c0.781,0.781,9.413,8.355,11.214,9.758c1.932,1.504,3.68-0.096,3.697-0.111l0.145-0.137L56.045,92.9
		c-0.655-0.615-0.947-1.164-0.869-1.627c0.086-0.508,0.604-0.836,1.022-1.021c0.585-0.262,5.72-2.449,6.9-2.842
		c0.342-0.17,0.672,0.059,0.846,0.338c0.188,0.305,0.23,0.721-0.098,0.969l0.052,0.32l4.388,1.156l0.157-0.322
		c-0.017-0.012-1.669-1.303-2.159-1.893c-0.201-0.24-0.522-0.713-0.417-1.182c0.08-0.355,0.393-0.66,0.929-0.908l5.038-2.039
		c0.6-0.277,1.007-0.059,1.175,0.211c0.197,0.316,0.173,0.85-0.345,1.271l-0.166,0.135l9.787,8.773
		c3.399,3.031,4.377,2.578,5.614,2.006l0.768-0.34l-0.198-0.189L75.816,83.975c-0.296-0.273-0.446-0.563-0.446-0.855
		c0-0.021,0.001-0.043,0.002-0.063c0.047-0.652,0.788-1.166,0.795-1.17c0.007,0,5.286-2.434,5.286-2.434
		c0.66-0.32,1.175-0.191,1.393,0.078c0.222,0.273,0.16,0.684-0.166,1.1l-0.104,0.133l8.234,7.674
		c1.088,0.934,3.552-0.887,3.656-0.965l0.175-0.129l-8.502-7.984c-0.342-0.311-0.49-0.641-0.432-0.955
		c0.075-0.398,0.48-0.77,1.115-1.014l5.326-2.344c0.476-0.254,1.304-0.588,1.636-0.016c0.48,0.828-0.314,1.361-0.348,1.381
		l-0.196,0.129l0.171,0.16c0.447,0.416,10.949,10.217,11.393,10.592c1.743,1.475,2.92,0.883,3.886,0.213l0.181-0.125L96.778,75.359
		c-0.412-0.414-0.614-0.889-0.552-1.303c0.052-0.352,0.287-0.649,0.679-0.857c0.755-0.403,3.672-1.635,6.245-2.721l4.533-1.958
		c1.215-0.607,1.971-0.806,2.483-0.121c0.044,0.098,0.181,0.493,0,0.64l-0.129,0.104l1.034,1.576
		c0.146,0.204,0.191,0.496,0.124,0.768c-0.06,0.242-0.202,0.434-0.392,0.528l-4.33,1.95c-0.299,0.17-0.381,0.384-0.401,0.536
		c-0.037,0.281,0.11,0.607,0.417,0.912l4.062,4.537c0.493,0.492,1.337,0.33,1.914,0.041l4.401-2.031
		c0.738-0.43,2.284,0.018,2.704,0.498c0.481,0.551,3.2,2.527,3.315,2.611l0.073,0.053l1.916-0.568l-0.024-0.355l-1.022-0.387
		c-3.894-3.883-11.384-11.342-11.581-11.565c-0.329-0.378-0.468-0.701-0.414-0.958c0.052-0.244,0.285-0.463,0.694-0.656l5.223-2.441
		c0.385-0.18,0.745-0.16,0.959,0.055c0.216,0.214,0.248,0.567,0.084,0.923l-0.049,0.108l2.045,2.328
		c0.304,0.305,0.595,0.417,0.87,0.34c0.743-0.207,1.12-1.729,1.596-3.657l0.224-0.895c0.373-1.462,0.73-1.975,1.658-2.387
		l3.383-1.284c0.495-0.204,0.865-0.043,1.012,0.205c0.148,0.25,0.139,0.69-0.377,1.109l-0.516,4.138l-0.033,0.303l1.685-0.671
		c0.779-0.338,1.592-0.172,2.229,0.456l8.208,7.196c0.806,0.618,1.299,0.943,2.178,0.553l1.201-0.513l-2.265-2.224
		c-0.431-0.412-0.621-0.765-0.566-1.053c0.057-0.303,0.398-0.586,1.012-0.839c0.001,0,6.046-2.581,6.046-2.581
		c0.543-0.271,0.564-0.729,0.406-1.067c-0.239-0.508-0.921-0.894-1.475-0.648c-0.001,0-4.807,2.003-4.807,2.003l-1.239,0.512
		C139.644,67.419,138.567,67.254,137.376,66.011L137.376,66.011z"/>
	<path fill-rule="evenodd" clip-rule="evenodd" d="M160.943,50.938L160.943,50.938c-3.27,1.454-19.582,8.704-19.7,8.771
		c-0.528,0.288-0.562,0.74-0.431,1.039c0.174,0.395,0.701,0.697,1.338,0.479c0.295-0.1,8.191-3.665,16.682-7.503l3.217-1.453
		c0.283-0.13,0.379-0.377,0.258-0.647C162.11,51.189,161.359,50.754,160.943,50.938L160.943,50.938z"/>
	<path fill-rule="evenodd" clip-rule="evenodd" fill="#FADC19" d="M161.973,51.775c0.032,0.072,0.036,0.113-0.072,0.162
		l-3.219,1.453c-5.294,2.394-16.309,7.373-16.647,7.49c-0.432,0.147-0.778-0.035-0.887-0.28c-0.093-0.213,0.009-0.427,0.272-0.571
		c0.272-0.134,19.478-8.67,19.671-8.756l0,0C161.295,51.183,161.848,51.497,161.973,51.775L161.973,51.775z"/>
	<path fill-rule="evenodd" clip-rule="evenodd" d="M143.292,55.094l-8.533,3.632c-0.407,0.204-0.862,0.603-0.943,1.127
		c-0.038,0.249-0.004,0.623,0.382,0.997l4.259,4.482c0.512,0.461,1.163,0.821,2.441,0.338l6.485-2.838
		c0.727-0.264,1.044-0.156,1.786,0.602l1.277,1.414c0.119,0.16,0.184,0.348,0.184,0.547c0,0.06-0.006,0.121-0.017,0.183
		c-0.062,0.313-0.273,0.598-0.582,0.785l-5.354,2.252c-0.305,0.215-0.636,0.513-0.636,0.93c0,0.138,0.036,0.289,0.121,0.454
		l0.616,0.758c0.014,0.017,0.345,0.346,0.748,0.535c-0.562,0.281-2.771,1.386-2.771,1.386c-1.004,0.462-2.304,0.801-2.942,0.367
		c0.014,0.009-7.026-6.034-7.026-6.034c-1.01-0.936-2.751-1.222-3.962-0.651c0,0-1.249,0.485-1.673,0.65
		c0.079-0.546,0.672-4.585,0.672-4.585c0.012-0.062,0.019-0.13,0.019-0.2c0-0.243-0.077-0.512-0.253-0.645
		c-0.082-0.062-0.256-0.148-0.505-0.022l-1.348,0.606c-0.486,0.241-0.845,0.705-0.987,1.275l-1.826,5.614
		c0,0-1.274,0.619-1.483,0.72c-0.174-0.174-3.163-3.165-3.163-3.165c-0.454-0.455-1.149-0.548-1.771-0.237l-1.351,0.607
		c-0.244,0.122-0.409,0.336-0.459,0.591c-0.012,0.056-0.017,0.114-0.017,0.172c0,0.27,0.118,0.553,0.346,0.812l10.348,10.526
		c0.22,0.258,0.558,0.422,0.847,0.523c-0.479,0.199-1.126,0.469-1.126,0.469c-1.938,0.861-3.264,1.059-5.146-0.26
		c-1.563-1.094-3.664,0.057-5.198,0.896l-1.467,0.705c-1.449,0.416-2.624,0.225-3.488-0.57l-5.621-5.754
		c-0.199-0.232-0.295-0.477-0.265-0.678l0.298-0.399l4.787-2.074c0.5-0.268,0.642-0.802,0.374-1.368
		c-0.296-0.63-1.025-1.106-1.732-0.815l-7.252,3.253c-0.908,0.341-1.375,0.727-1.429,1.184c-0.004,0.027-0.005,0.055-0.005,0.082
		c0,0.447,0.427,0.74,0.446,0.752c0.078,0.143,10.032,10.33,10.131,10.43c0.392,0.4,0.908,0.568,1.311,0.65
		c-0.756,0.398-3.084,1.629-3.084,1.629c-2.583,1.377-3.907,0.361-5.189-0.619l-0.517-0.387l-9.34-8.867
		c-0.584-0.658-1.308-0.869-2.024-0.58l-1.136,0.576l-0.438,0.244l-0.422,0.57c-0.031,0.115-0.046,0.234-0.046,0.354
		c0,0.256,0.068,0.508,0.195,0.697c0,0,8.542,7.975,8.917,8.326c-0.411,0.197-4.023,1.916-4.023,1.916
		c-2.687,1.15-4.397-0.754-4.469-0.834c-0.015-0.014-7.605-6.988-7.605-6.988c-0.625-0.623-1.031-0.908-1.516-0.73
		c-0.019,0.008-1.65,0.699-1.65,0.699c-0.449,0.236-0.702,0.535-0.752,0.891c-0.006,0.043-0.009,0.086-0.009,0.127
		c0,0.498,0.397,0.887,0.416,0.904c0.003,0.004,7.798,7.246,7.798,7.246c2.156,2.156,3.569,3.096,4.915,3.328
		c-0.926,0.404-5.229,2.291-5.229,2.291c-0.543,0.273-1.921,0.377-2.479-0.182c-3.701-3.389-10.779-9.889-11.114-10.266
		c-0.92-1.037-1.656-0.953-3.058-0.352c-0.529,0.227-0.83,0.523-0.895,0.883c-0.009,0.049-0.013,0.098-0.013,0.145
		c0,0.426,0.33,0.75,0.346,0.766c0,0,4.901,4.506,5.805,5.338c-1.255-0.326-11.228-2.92-11.228-2.92
		c-0.828-0.236-1.426-0.332-2.002-0.318c-0.643,0.018-1.75,0.463-2.504,0.84c-0.486,0.242-0.772,0.561-0.831,0.922
		c-0.008,0.047-0.011,0.094-0.011,0.141c0,0.314,0.165,0.635,0.489,0.961c1.047,1.045,10.182,9.402,11.404,10.52
		c-0.394,0.127-1.179,0.43-2.675,1.244c-2.628,1.434-5.025-0.379-5.292-0.592c-1.052-0.842-8.589-7.363-9.848-8.9
		c-0.995-1.217-2.984-0.295-3.069-0.256l-8.025,3.455c-1.029,0.412-1.58,0.918-1.638,1.502c-0.082,0.822,0.854,1.441,0.894,1.467
		l9.363,9.412c0.405,0.354,0.585,0.705,0.546,1.057c-0.041,0.361-0.33,0.719-0.775,0.959c-1.667,0.896-5.265,1.777-8.171,1.643
		c-8.84-0.422-16.401-3.035-21.864-7.553c-1.617-1.338-2.359-2.359-2.272-3.121c0.091-0.793,1.112-1.303,2.102-1.797
		c2.031-1.016,17.621-7.672,20.74-8.947c0.495-0.201,0.76-0.492,0.788-0.857c0.065-0.857-1.264-1.844-2.39-2.521
		c-1.425-0.854-3.543,0.152-3.632,0.197c-0.184,0.074-19.57,7.951-23.596,9.762c-0.069,0.035-1.525,0.777-1.849,2.182
		c-0.194,0.844,0.063,1.73,0.761,2.643c5.064,6.598,9.372,9.402,20.95,13.633c10.43,3.809,17.836,0.723,24.996-2.266l0.452-0.188
		l119.874-50.602c0.293-0.13,0.472-0.376,0.49-0.674c0.03-0.482-0.346-1.011-1.008-1.417l0,0c-3.724-2.275-4.742-2.247-7.16-1.156
		l-10.029,4.562c-0.604,0.302-1.691,0.401-2.237-0.315l-5.731-5.878c-0.413-0.583-1.198-0.66-1.75-0.423
		c-0.715,0.388-6.251,2.854-6.902,3.075c-0.821,0.276-1.271-0.253-1.418-0.426l-1.782-1.977c0.017,0.02-0.102-0.104-0.05-0.387
		c0.051-0.283,0.361-0.461,0.361-0.461l6.208-2.812c0.021-0.01,0.322-0.225,0.273-0.408c-0.048-0.184-0.315-0.845-0.315-0.845
		C144.413,54.855,143.405,55.068,143.292,55.094L143.292,55.094z"/>
	<path fill-rule="evenodd" clip-rule="evenodd" fill="#FADC19" d="M138.701,65.061l-4.242-4.466
		c-0.226-0.219-0.319-0.447-0.281-0.684c0.049-0.319,0.338-0.653,0.735-0.852l8.492-3.617c0.216-0.046,0.912-0.125,1.163,0.181
		c0,0,0.194,0.461,0.239,0.545c0.044,0.084-0.088,0.156-0.088,0.156l-6.2,2.806c-0.015,0.007-0.47,0.349-0.552,0.705
		c-0.082,0.356,0.119,0.697,0.119,0.697c0.017,0.02,1.791,1.986,1.791,1.986c0.502,0.592,1.111,0.772,1.813,0.535
		c0.658-0.222,6.24-2.707,6.945-3.092c0.391-0.167,0.994-0.114,1.31,0.329l5.735,5.883c0.656,0.867,1.961,0.763,2.672,0.407
		l10.021-4.557c2.313-1.045,3.22-1.065,6.817,1.134l0,0c0.641,0.391,0.852,0.815,0.835,1.08c-0.011,0.162-0.105,0.287-0.271,0.361
		l-119.868,50.6l-0.452,0.188c-7.096,2.961-14.434,6.02-24.729,2.258c-11.498-4.201-15.771-6.979-20.785-13.51
		c-0.628-0.82-0.862-1.604-0.695-2.334c0.283-1.236,1.635-1.93,1.649-1.938c4.014-1.805,23.393-9.678,23.588-9.758
		c0.031-0.016,2.041-0.969,3.295-0.217c1.424,0.855,2.251,1.67,2.213,2.18c-0.017,0.217-0.205,0.4-0.562,0.545
		c-3.121,1.277-18.729,7.941-20.765,8.959c-1.075,0.537-2.188,1.094-2.302,2.084c-0.104,0.904,0.66,2,2.403,3.443
		c5.525,4.57,13.161,7.211,22.08,7.635c2.968,0.143,6.652-0.764,8.363-1.684c0.549-0.297,0.91-0.76,0.964-1.24
		c0.037-0.328-0.048-0.83-0.66-1.365l-9.383-9.426c-0.038-0.029-0.82-0.551-0.759-1.15c0.042-0.432,0.53-0.846,1.409-1.197
		l8.042-3.461c0.021-0.01,1.819-0.842,2.632,0.152c1.305,1.596,8.815,8.086,9.903,8.957c1.281,1.023,3.542,1.801,5.695,0.627
		c2.156-1.176,2.882-1.301,2.89-1.303l0.374-0.061l-0.278-0.256c-0.105-0.096-10.521-9.619-11.631-10.727
		c-0.287-0.285-0.412-0.551-0.375-0.783c0.048-0.303,0.371-0.523,0.633-0.652c0.751-0.377,1.808-0.789,2.35-0.801
		c0.537-0.014,1.102,0.076,1.892,0.305c0.001,0,11.947,3.105,11.947,3.105l0.168-0.313l-6.34-5.832c0,0-0.279-0.277-0.224-0.578
		c0.042-0.227,0.277-0.439,0.68-0.611c1.418-0.607,1.912-0.561,2.639,0.26c0.431,0.484,10.699,9.887,11.136,10.287
		c0.698,0.697,2.268,0.559,2.887,0.248l5.791-2.537l-0.074-0.354c-1.423,0-2.91-0.93-5.299-3.32l-7.805-7.252
		c-0.001,0-0.349-0.346-0.296-0.715c0.034-0.232,0.223-0.439,0.561-0.619l1.587-0.672c0.252-0.092,0.492-0.016,1.148,0.641
		l7.604,6.984c0.004,0.006,1.938,2.172,4.875,0.914l4.534-2.16l-0.209-0.176l-9.087-8.477c-0.099-0.158-0.14-0.467-0.072-0.723
		l0.231-0.336l0.459-0.254l1.088-0.555c0.722-0.291,1.282,0.109,1.625,0.494l9.371,8.895c0.02,0.018,0.526,0.396,0.526,0.396
		c1.31,1.004,2.793,2.139,5.585,0.65l3.59-1.896l-0.082-0.348c-0.011,0-1.053-0.01-1.646-0.613
		c-0.579-0.59-9.914-10.152-10.144-10.436c-0.047-0.043-0.359-0.26-0.326-0.531c0.021-0.17,0.202-0.511,1.193-0.882l7.263-3.256
		c0.506-0.208,1.039,0.157,1.262,0.631c0.068,0.145,0.256,0.637-0.202,0.882l-4.798,2.081c-0.024,0.014-0.49,0.667-0.49,0.667
		c-0.046,0.307,0.079,0.654,0.355,0.979c0.007,0.006,5.645,5.777,5.645,5.777c0.966,0.887,2.257,1.105,3.837,0.654l1.541-0.736
		c1.532-0.84,3.438-1.881,4.813-0.918c2.017,1.408,3.489,1.191,5.502,0.295l2.224-0.926l-0.643-0.102
		c-0.009,0-0.82-0.131-1.177-0.547l-10.35-10.529c-0.19-0.22-0.278-0.458-0.237-0.665c0.028-0.145,0.119-0.262,0.257-0.331
		l1.351-0.607c0.485-0.242,1.014-0.176,1.355,0.166l3.35,3.351l1.814-0.945c0.089-0.104,1.923-5.747,1.923-5.747
		c0.117-0.465,0.405-0.842,0.789-1.033l1.348-0.606c0.089-0.044,0.117-0.024,0.127-0.017c0.086,0.065,0.131,0.304,0.095,0.491
		l-0.766,5.216l2.271-0.883c1.098-0.516,2.66-0.257,3.567,0.584l7.056,6.055c0.951,0.649,2.635-0.012,3.316-0.325
		c0-0.001,3.167-1.583,3.167-1.583l-0.117-0.339c-0.356,0.046-0.764-0.387-0.891-0.558l-0.601-0.732
		c-0.126-0.253-0.115-0.505,0.389-0.865l5.341-2.245c0.422-0.252,0.695-0.627,0.774-1.042c0.071-0.364-0.017-0.731-0.243-1.032
		c-0.01-0.012-1.298-1.438-1.298-1.438c-0.754-0.769-1.223-1.035-2.174-0.689c-0.002,0-6.49,2.84-6.49,2.84
		C139.73,65.722,139.207,65.517,138.701,65.061L138.701,65.061z"/>
	<path fill-rule="evenodd" clip-rule="evenodd" d="M54.364,102.379c-3.331,1.533-4.317,1.988-4.592,2.189
		c0.012-0.023,0.031-0.061,0.031-0.061c-0.225,0.066-0.419,0.27-0.507,0.525c-0.101,0.289-0.054,0.605,0.13,0.865l1.514,1.855
		c2.308,2.623,4.167,2.107,5.964,1.609l0.04-0.014l4.984-2.238l-0.118-0.346c-0.008,0-0.763,0.166-1.889-0.584
		c0-0.002-2.177-1.926-2.177-1.926l-1.784-1.625C55.239,102.023,54.399,102.363,54.364,102.379L54.364,102.379z"/>
	<path fill-rule="evenodd" clip-rule="evenodd" fill="#EA262D" d="M51.215,107.512l-1.491-1.826
		c-0.156-0.221-0.119-0.43-0.083-0.533c0.05-0.145,0.155-0.26,0.268-0.293c0.041-0.021,4.603-2.146,4.603-2.146
		c0.021-0.008,0.666-0.264,1.213,0.199c0.001,0,1.769,1.611,1.769,1.611l2.225,1.963c0.58,0.385,1.028,0.52,1.4,0.586
		c-0.995,0.447-4.324,1.941-4.324,1.941l0.012-0.004C54.962,109.521,53.37,109.963,51.215,107.512L51.215,107.512z"/>
	<path fill-rule="evenodd" clip-rule="evenodd" d="M55.071,103.602l-3.789,1.73l1.577,1.734c1.172,1.334,1.914,2.152,2.325,2.289
		c0.688,0.23,2.982-0.414,4.005-0.926c0.744-0.371,0.846-0.455,0.78-0.635l-4.789-4.242L55.071,103.602L55.071,103.602z"/>
	<path fill-rule="evenodd" clip-rule="evenodd" fill="#FFFFFF" d="M55.114,103.984c0.167,0.148,4.072,3.645,4.337,3.881
		c-0.187,0.105-0.426,0.236-0.426,0.236c-1.018,0.51-3.193,1.084-3.726,0.906c-0.347-0.115-1.355-1.262-2.165-2.184
		c0,0-0.976-1.072-1.244-1.365C52.276,105.281,54.923,104.072,55.114,103.984L55.114,103.984z"/>
	<path fill-rule="evenodd" clip-rule="evenodd" d="M62.146,93.225c0.069,0.061,7.027,6.158,8.628,7.738
		c1.146,1.131,2.401,1.484,3.05,1.248c2.218-0.807,8.359-3.547,8.421-3.576l-0.026-0.344L62.314,92.91L62.146,93.225L62.146,93.225z
		"/>
	<path fill-rule="evenodd" clip-rule="evenodd" fill="#EA262D" d="M71.032,100.701c-1.343-1.326-6.371-5.754-8.052-7.232
		c1.372,0.371,17.736,4.795,18.646,5.041c-1.444,0.643-6.063,2.68-7.926,3.357C73.165,102.061,72.021,101.678,71.032,100.701
		L71.032,100.701z"/>
	<path fill-rule="evenodd" clip-rule="evenodd" d="M68.342,96.471l0.443,0.453c2.522,2.6,5.29,5.178,6.678,4.572
		c0.001,0,4.541-1.943,4.541-1.943l-0.024-0.346l-11.461-3.041L68.342,96.471L68.342,96.471z"/>
	<path fill-rule="evenodd" clip-rule="evenodd" fill="#FFFFFF" d="M69.068,96.689c1.091,0.289,9.423,2.5,10.305,2.734
		c-0.78,0.334-4.056,1.734-4.056,1.734C73.98,101.744,70.427,98.09,69.068,96.689L69.068,96.689z"/>
	<path fill-rule="evenodd" clip-rule="evenodd" d="M128.937,69.314c-2.288,0.807-5.847,2.5-5.882,2.516l-0.209,0.1l0.145,0.179
		c0.361,0.453,2.373,2.458,3.842,3.923l1.409,1.416c0.837,0.992,2.566,1.002,3.688,0.441l5.987-2.74l-0.024-0.35
		c-0.012-0.002-1.196-0.311-2.469-1.386l-1.084-1.125C132.935,70.725,131.011,68.582,128.937,69.314L128.937,69.314z"/>
	<path fill-rule="evenodd" clip-rule="evenodd" fill="#EA262D" d="M129.059,69.659c1.844-0.651,3.673,1.387,5.009,2.875l1.119,1.16
		c0.89,0.753,1.695,1.124,2.174,1.308c-0.723,0.33-5.597,2.561-5.597,2.561c-1,0.502-2.543,0.48-3.244-0.35l-1.429-1.439
		c-1.279-1.277-3.108-3.104-3.654-3.717C124.233,71.682,127.107,70.348,129.059,69.659L129.059,69.659z"/>
	<path fill-rule="evenodd" clip-rule="evenodd" d="M129.113,70.838c-1.049,0.328-2.466,0.771-2.983,1.133v0.002
		c-0.137,0.096-0.216,0.228-0.229,0.382c-0.029,0.36,0.318,0.715,0.357,0.755c0.179,0.229,3.819,3.892,3.854,3.925
		c0.719,0.689,1.43,1.029,1.81,0.859l4.584-2.213l-0.456-0.17c-0.007,0-0.714-0.141-1.573-0.904l-3.387-3.166
		C130.524,70.807,129.858,70.605,129.113,70.838L129.113,70.838z"/>
	<path fill-rule="evenodd" clip-rule="evenodd" fill="#FFFFFF" d="M129.11,71.223c0.718-0.224,1.239-0.061,1.707,0.462l3.417,3.194
		c0.553,0.492,0.986,0.713,1.308,0.84c-0.645,0.314-3.771,1.842-3.771,1.842c-0.16,0.07-0.719-0.131-1.406-0.791
		c-0.205-0.197-3.684-3.712-3.832-3.902c-0.101-0.101-0.268-0.317-0.268-0.466c0-0.005,0-0.011,0-0.015
		c0.003-0.031,0.014-0.071,0.075-0.114C126.811,71.941,128.251,71.491,129.11,71.223L129.11,71.223z"/>
	<path fill-rule="evenodd" clip-rule="evenodd" d="M48.444,97.014l-4.163,1.83c-0.457,0.201-0.764,0.559-0.865,1.004
		c-0.11,0.48,0.035,0.998,0.393,1.418l1.536,1.535c0.685,0.684,1.513,0.83,2.533,0.449l4.181-1.834
		c0.456-0.229,0.719-0.518,0.789-0.863c0.072-0.357-0.069-0.746-0.419-1.154l-1.629-1.832
		C50.119,96.773,49.099,96.688,48.444,97.014L48.444,97.014z"/>
	<path fill-rule="evenodd" clip-rule="evenodd" fill="#EA262D" d="M48.599,97.346c0.536-0.268,1.364-0.193,1.924,0.461l1.629,1.832
		c0.271,0.314,0.385,0.6,0.336,0.842c-0.046,0.229-0.244,0.432-0.585,0.604l-4.163,1.826c-0.875,0.328-1.556,0.213-2.137-0.367
		l-1.526-1.525c-0.212-0.25-0.33-0.559-0.33-0.855c0-0.078,0.008-0.158,0.026-0.234c0.075-0.33,0.308-0.596,0.657-0.75
		C44.431,99.178,48.599,97.346,48.599,97.346L48.599,97.346z"/>
	<path fill-rule="evenodd" clip-rule="evenodd" d="M48.101,98.623L48.101,98.623c-0.007,0-2.229,0.861-2.229,0.861
		c-0.247,0.129-0.375,0.33-0.375,0.57c0,0.086,0.017,0.176,0.05,0.271c0.255,0.715,1.529,1.602,1.999,1.508l2.318-0.914
		c0.641-0.291,0.882-0.512,0.869-0.756c-0.01-0.18-0.163-0.293-0.292-0.336c0.055,0.029-1.098-0.973-1.098-0.973
		C48.859,98.373,48.319,98.492,48.101,98.623L48.101,98.623z"/>
	<path fill-rule="evenodd" clip-rule="evenodd" fill="#FFFFFF" d="M45.891,100.203c-0.067-0.189-0.023-0.303,0.151-0.396
		l2.213-0.854c0.072-0.037,0.438-0.229,0.828,0.16l1.188,1.033c0.05,0.027,0.093,0.053,0.097,0.055
		c-0.015,0.002-0.095,0.131-0.57,0.346c-0.087,0.039-2.325,0.928-2.325,0.928C47.221,101.525,46.104,100.803,45.891,100.203
		L45.891,100.203z"/>
	<polygon fill-rule="evenodd" clip-rule="evenodd" fill="#FFFFFF" points="98.233,59.187 128.232,46.606 127.637,46.081 
		97.637,58.661 98.233,59.187 	"/>
	<polygon fill-rule="evenodd" clip-rule="evenodd" fill="#FFFFFF" points="38.274,84.33 56.797,76.563 56.201,76.037 37.979,83.678 
		38.274,84.33 	"/>
	<polygon fill-rule="evenodd" clip-rule="evenodd" fill="#FFFFFF" points="35.381,69.862 41.429,67.325 41.433,66.549 
		35.335,69.105 35.381,69.862 	"/>
	<polygon fill-rule="evenodd" clip-rule="evenodd" fill="#FFFFFF" points="38.444,53.555 62.317,43.545 62.321,42.769 38.55,52.737 
		38.444,53.555 	"/>
	<polygon fill-rule="evenodd" clip-rule="evenodd" fill="#FFFFFF" points="47.586,37.212 87.302,20.558 86.825,19.982 
		47.691,36.392 47.586,37.212 	"/>
	<polygon fill-rule="evenodd" clip-rule="evenodd" fill="#FFFFFF" points="76.727,118.486 123.247,98.977 123.376,98.148 
		75.979,118.023 76.727,118.486 	"/>
	<polygon fill-rule="evenodd" clip-rule="evenodd" fill="#FFFFFF" points="65.331,72.983 89.135,63.002 88.539,62.477 
		64.734,72.459 65.331,72.983 	"/>
</g>
</svg>
